<svg xmlns="http://www.w3.org/2000/svg" width="92.142" height="68.458" viewBox="0 0 92.142 68.458"><defs><style>.a{fill:#9d8b61;}.b{fill:#4c0b36;}</style></defs><g transform="translate(-762.23 -5650.779)"><path class="a" d="M-477.523,588.112c-4.1,2.495-4.232-2.591-4.232-2.591V572.66c-.068-4.385-4.731-6.412-7.045-6.711a29.586,29.586,0,0,0-10.288.146c-4.5.911-7.308,4.572-6.018,7.927s5.853,2.993,7.175,1.729a3.781,3.781,0,0,0,1.094-3.008,3.866,3.866,0,0,1-1.389-4.311c.883-2.749,7.351-3.764,7.6.844v6.089a50.429,50.429,0,0,1-6.961,2.706c-3.225.9-8.321,1.976-9.368,5.978-1.084,4.137,2.864,8.953,8.89,7.734,5.3-1.074,7.1-4.272,7.5-5.132.369,2.7,2.459,5.976,6.9,4.974a14.213,14.213,0,0,0,6.289-3.382s.081-.079.072-.147c-.011-.111-.228.018-.228.018m-13.485-1.485c-.77,1.078-2.4,2.772-4.275,1.253-2.608-2.114-1.609-8.443.608-9.809,2.029-1.253,4.053-2.371,4.053-2.371v10.177c0,.065.008.135.013.2-.139.194-.353.488-.4.55" transform="translate(1301.67 5110.925)"/><path class="b" d="M-472.728,662.5a2.675,2.675,0,0,0-.469-1.429,2.67,2.67,0,0,0-.466,1.43c-.246-.356-.588-.348-.983-.326.381.369.487,1.152.937,1.518a.815.815,0,0,0,.436.2l.079,0c.028,0,.055,0,.08,0a.841.841,0,0,0,.436-.2c.445-.365.549-1.149.93-1.518-.393-.022-.736-.028-.981.327" transform="translate(1281.493 5051.601)"/><path class="b" d="M-530.113,624.894a1.437,1.437,0,0,0-.891.114,10.463,10.463,0,0,1-.94.5,2.98,2.98,0,0,1-.467.126,1.958,1.958,0,0,1-1.291-.205,2.284,2.284,0,0,0,2.52.975,2.21,2.21,0,0,0-.358,1.19,2.3,2.3,0,0,0,.164,1.072,4.173,4.173,0,0,0,.4.7,2.249,2.249,0,0,1,.568-1.845c.343-.448.859-.717,1.039-1.29a1.1,1.1,0,0,0-.748-1.343" transform="translate(1318.176 5074.09)"/><path class="b" d="M-568.216,606.894c-.505-.123-.985-.707-1.545-.8a.827.827,0,0,0-.461.045c-.022.01-.044.02-.069.033a.633.633,0,0,0-.062.042.738.738,0,0,0-.263.363c-.184.5.127,1.187,0,1.666.337-.166.626-.321.649-.723a2.659,2.659,0,0,0,1.111.941,2.455,2.455,0,0,0-.339-1.377.946.946,0,0,0,.982-.194" transform="translate(1341.143 5085.755)"/><path class="b" d="M-508.853,525.917a1.286,1.286,0,0,0,.788-1.314,1.807,1.807,0,0,0,.968,1.026,1.419,1.419,0,0,0,.555-1.276,1.586,1.586,0,0,0,1.241.991s.007,0,.01,0a1.8,1.8,0,0,0-1.812-1.922,1.581,1.581,0,0,0-.421.04,1.851,1.851,0,0,0-.979.546,1.746,1.746,0,0,0-.355,1.9.031.031,0,0,0,0,.014" transform="translate(1302.832 5137.103)"/><path class="b" d="M-558.736,643.439a1.865,1.865,0,0,0-.631.721,1.373,1.373,0,0,0-.13.61,1.3,1.3,0,0,0,.12.515,1.16,1.16,0,0,0,.168.249,1.309,1.309,0,0,0,.672.429,1.779,1.779,0,0,0,.86-.044,1.76,1.76,0,0,0,.673-.393l.049-.046a2.922,2.922,0,0,0,.852-1.423,3.706,3.706,0,0,0,.1-.95,3.383,3.383,0,0,0-.107-.784c-.6.86-1.83.576-2.629,1.115" transform="translate(1334.199 5063.245)"/><path class="b" d="M-512.87,663.515a1.145,1.145,0,0,1-.547-.246,1.812,1.812,0,0,1-.656.173,2.238,2.238,0,0,1,.022.726,1.7,1.7,0,0,0,.8.263,1.856,1.856,0,0,0,1.772-.963,2,2,0,0,1-1.391.047" transform="translate(1305.983 5050.234)"/><path class="b" d="M-517.559,660.116a2.218,2.218,0,0,0,1.439-.187,1.831,1.831,0,0,0,.983-.834,1.4,1.4,0,0,1-1.452-.348c-.627-.534-1.623-.743-1.9.034a.854.854,0,0,0,.088.758,1.3,1.3,0,0,0,.844.577" transform="translate(1308.759 5053.338)"/><path class="b" d="M-518.524,661.319a1.3,1.3,0,0,1-.959-1,1.026,1.026,0,0,1,.005-.349,1.008,1.008,0,0,0-.225.338,1.153,1.153,0,0,0,.082,1,6.393,6.393,0,0,0,.913,1.207,1.087,1.087,0,0,1,.281.743,2.036,2.036,0,0,0,.524-.734,2.157,2.157,0,0,0,.1-1.118,3.62,3.62,0,0,1-.717-.085" transform="translate(1309.529 5052.284)"/><path class="b" d="M-559.22,594.255a1.86,1.86,0,0,0,1.771-.962,2.006,2.006,0,0,1-1.391.046,1.13,1.13,0,0,1-.546-.245,1.8,1.8,0,0,1-.657.172,2.241,2.241,0,0,1,.022.727,1.7,1.7,0,0,0,.8.262" transform="translate(1334.538 5093.824)"/><path class="b" d="M-563.577,589.855a2.212,2.212,0,0,0,1.439-.164,1.868,1.868,0,0,0,.982-.856,1.4,1.4,0,0,1-1.451-.348c-.627-.535-1.623-.743-1.9.033a.854.854,0,0,0,.087.758,1.292,1.292,0,0,0,.844.577" transform="translate(1337.344 5096.982)"/><path class="b" d="M-564.495,591.143a1.3,1.3,0,0,1-.96-1,1.054,1.054,0,0,1,.006-.349,1.026,1.026,0,0,0-.225.337,1.147,1.147,0,0,0,.083,1,6.391,6.391,0,0,0,.912,1.208,1.084,1.084,0,0,1,.281.742,2.032,2.032,0,0,0,.524-.734,2.152,2.152,0,0,0,.1-1.118,3.626,3.626,0,0,1-.717-.085" transform="translate(1338.084 5095.875)"/><path class="b" d="M-493.273,501.1a1.813,1.813,0,0,1,.66-.163,2.232,2.232,0,0,1-.014-.727,1.711,1.711,0,0,0-.8-.273,1.861,1.861,0,0,0-1.784.94,2.01,2.01,0,0,1,1.392-.029,1.143,1.143,0,0,1,.543.253" transform="translate(1294.265 5151.695)"/><path class="b" d="M-490.557,503.193a2.229,2.229,0,0,0-1.441.167,1.848,1.848,0,0,0-.995.82,1.407,1.407,0,0,1,1.448.368c.621.542,1.613.766,1.9-.008a.858.858,0,0,0-.078-.76,1.3,1.3,0,0,0-.836-.587" transform="translate(1292.889 5149.701)"/><path class="b" d="M-486.993,498.444a1.087,1.087,0,0,1-.271-.746,2.028,2.028,0,0,0-.534.727,2.151,2.151,0,0,0-.11,1.116,3.629,3.629,0,0,1,.715.094,1.307,1.307,0,0,1,.947,1.015,1.045,1.045,0,0,1-.011.349,1.073,1.073,0,0,0,.23-.334,1.159,1.159,0,0,0-.07-1,6.346,6.346,0,0,0-.9-1.218" transform="translate(1289.748 5153.081)"/><path class="b" d="M-504.731,548.653a2.23,2.23,0,0,0,.314-1.2,2.323,2.323,0,0,0-.2-1.064,4.174,4.174,0,0,0-.428-.687,2.246,2.246,0,0,1-.5,1.865c-.327.458-.83.747-.989,1.326a1.1,1.1,0,0,0,.8,1.315,1.445,1.445,0,0,0,.885-.146,10.358,10.358,0,0,1,.922-.538,2.951,2.951,0,0,1,.46-.144,1.967,1.967,0,0,1,1.3.157,2.284,2.284,0,0,0-2.555-.881" transform="translate(1301.326 5123.264)"/><path class="b" d="M-416.387,625.637a2.973,2.973,0,0,1-.466-.126,10.492,10.492,0,0,1-.941-.5,1.437,1.437,0,0,0-.89-.114,1.1,1.1,0,0,0-.748,1.343c.18.572.694.842,1.038,1.289a2.249,2.249,0,0,1,.569,1.845,4.167,4.167,0,0,0,.4-.7,2.3,2.3,0,0,0,.165-1.072,2.21,2.21,0,0,0-.358-1.19,2.284,2.284,0,0,0,2.52-.975,1.959,1.959,0,0,1-1.291.206" transform="translate(1247.224 5074.09)"/><path class="b" d="M-375.03,606.582a.733.733,0,0,0-.261-.364c-.022-.015-.042-.029-.065-.042s-.045-.022-.068-.033a.834.834,0,0,0-.461-.046c-.56.09-1.04.673-1.544.8a.944.944,0,0,0,.981.193,2.466,2.466,0,0,0-.34,1.378,2.666,2.666,0,0,0,1.113-.942c.022.4.313.557.648.724-.131-.478.182-1.161,0-1.665" transform="translate(1221.105 5085.755)"/><path class="b" d="M-442.4,525.345a1.584,1.584,0,0,0,1.241-.991,1.42,1.42,0,0,0,.555,1.276,1.8,1.8,0,0,0,.968-1.027,1.289,1.289,0,0,0,.789,1.314.035.035,0,0,0,0-.014,1.748,1.748,0,0,0-.355-1.9,1.86,1.86,0,0,0-.98-.546,1.594,1.594,0,0,0-.422-.04,1.8,1.8,0,0,0-1.81,1.922s.006,0,.009,0" transform="translate(1261.471 5137.103)"/><path class="b" d="M-388.612,643.439c-.8-.539-2.024-.255-2.63-1.115a3.4,3.4,0,0,0-.106.784,3.717,3.717,0,0,0,.1.95,2.926,2.926,0,0,0,.851,1.423l.049.046a1.755,1.755,0,0,0,.675.393,1.773,1.773,0,0,0,.859.044,1.309,1.309,0,0,0,.672-.429,1.108,1.108,0,0,0,.167-.249,1.3,1.3,0,0,0,.12-.515,1.37,1.37,0,0,0-.13-.61,1.862,1.862,0,0,0-.63-.721" transform="translate(1229.752 5063.245)"/><path class="b" d="M-432.452,663.269a1.119,1.119,0,0,1-.547.245,2,2,0,0,1-1.391-.046,1.858,1.858,0,0,0,1.772.962,1.69,1.69,0,0,0,.8-.263,2.244,2.244,0,0,1,.023-.726,1.821,1.821,0,0,1-.658-.173" transform="translate(1256.488 5050.234)"/><path class="b" d="M-431.074,659.929a2.216,2.216,0,0,0,1.438.187,1.293,1.293,0,0,0,.844-.577.856.856,0,0,0,.088-.758c-.279-.777-1.275-.568-1.9-.034a1.4,1.4,0,0,1-1.452.348,1.83,1.83,0,0,0,.983.833" transform="translate(1255.038 5053.338)"/><path class="b" d="M-425.426,659.97a1.074,1.074,0,0,1,.007.349,1.306,1.306,0,0,1-.96,1,3.637,3.637,0,0,1-.718.085,2.156,2.156,0,0,0,.094,1.118,2.043,2.043,0,0,0,.525.735,1.085,1.085,0,0,1,.28-.743,6.387,6.387,0,0,0,.913-1.207,1.155,1.155,0,0,0,.084-1,1.026,1.026,0,0,0-.225-.337" transform="translate(1251.978 5052.283)"/><path class="b" d="M-386.482,593.093a1.134,1.134,0,0,1-.546.245,2.01,2.01,0,0,1-1.392-.046,1.86,1.86,0,0,0,1.771.962,1.688,1.688,0,0,0,.8-.262,2.215,2.215,0,0,1,.022-.727,1.8,1.8,0,0,1-.657-.172" transform="translate(1227.933 5093.824)"/><path class="b" d="M-385.057,589.691a2.213,2.213,0,0,0,1.439.164,1.294,1.294,0,0,0,.844-.577.857.857,0,0,0,.088-.758c-.28-.776-1.274-.567-1.9-.033a1.407,1.407,0,0,1-1.452.348,1.879,1.879,0,0,0,.984.856" transform="translate(1226.454 5096.982)"/><path class="b" d="M-379.315,591.131a1.149,1.149,0,0,0,.083-1,1.039,1.039,0,0,0-.225-.337,1.047,1.047,0,0,1,.007.349,1.306,1.306,0,0,1-.961,1,3.627,3.627,0,0,1-.718.085,2.163,2.163,0,0,0,.1,1.118,2.035,2.035,0,0,0,.524.734,1.083,1.083,0,0,1,.282-.742,6.487,6.487,0,0,0,.911-1.208" transform="translate(1223.423 5095.875)"/><path class="b" d="M-452.442,499.937a1.7,1.7,0,0,0-.8.273,2.239,2.239,0,0,1-.013.728,1.815,1.815,0,0,1,.659.163,1.142,1.142,0,0,1,.543-.253,2.014,2.014,0,0,1,1.393.029,1.864,1.864,0,0,0-1.785-.94" transform="translate(1268.204 5151.695)"/><path class="b" d="M-455.2,503.361a2.227,2.227,0,0,0-1.441-.167,1.29,1.29,0,0,0-.835.587.858.858,0,0,0-.078.76c.289.773,1.282.55,1.9.008a1.407,1.407,0,0,1,1.447-.368,1.842,1.842,0,0,0-1-.82" transform="translate(1270.909 5149.701)"/><path class="b" d="M-458.634,500.65a1.307,1.307,0,0,1,.947-1.015,3.633,3.633,0,0,1,.716-.094,2.145,2.145,0,0,0-.111-1.116,2.016,2.016,0,0,0-.533-.726,1.081,1.081,0,0,1-.27.746,6.352,6.352,0,0,0-.9,1.218,1.157,1.157,0,0,0-.07,1,1.034,1.034,0,0,0,.23.334,1.044,1.044,0,0,1-.012-.349" transform="translate(1271.734 5153.08)"/><path class="b" d="M-443.275,547.565a2.252,2.252,0,0,1-.5-1.865,4.077,4.077,0,0,0-.429.687,2.314,2.314,0,0,0-.2,1.065,2.209,2.209,0,0,0,.314,1.2,2.284,2.284,0,0,0-2.555.881,1.967,1.967,0,0,1,1.3-.157,3.1,3.1,0,0,1,.461.144,10.313,10.313,0,0,1,.92.539,1.453,1.453,0,0,0,.887.146,1.1,1.1,0,0,0,.8-1.315c-.159-.579-.664-.868-.991-1.326" transform="translate(1264.102 5123.264)"/><path class="a" d="M-480.527,655.2a2.331,2.331,0,0,0-.124,1.616c.14.373.683,1.036,1.144.99a1.289,1.289,0,0,1,1.865.239l.095.209.04-.263a2.213,2.213,0,0,0-.039-.469,2.046,2.046,0,0,0-1.289-1.3c-.537-.181-1.5-.395-1.691-1.02" transform="translate(1285.284 5055.248)"/><path class="a" d="M-469.4,657.506a1.953,1.953,0,0,0-.037.467l.04.266.092-.211a1.288,1.288,0,0,1,1.865-.241c.461.043,1-.621,1.141-.994a2.323,2.323,0,0,0-.127-1.613c-.187.624-1.154.839-1.689,1.023a2.037,2.037,0,0,0-1.285,1.3" transform="translate(1278.261 5055.258)"/><path class="a" d="M-473.019,655.333a1.937,1.937,0,0,1,.369-.606,1.921,1.921,0,0,1,.369.6,1.371,1.371,0,0,1,.349-.927,1.659,1.659,0,0,0,.056-2.076c-.551-.726-.765-.991-.777-1.008-.014.017-.226.283-.778,1.009a1.668,1.668,0,0,0,.062,2.078,1.36,1.36,0,0,1,.351.926" transform="translate(1280.946 5057.656)"/><path class="a" d="M-468.186,663.341c.3-.013.514.28.763.4a1.668,1.668,0,0,0,.77.147,1.581,1.581,0,0,0,1.389-1.023.712.712,0,0,1-.909.036c-.337-.215-.609-.539-.95-.744-.53-.325-1.476-.347-1.619.408a1.085,1.085,0,0,1,1.077.182c-.452.041-.522.589-.522.589" transform="translate(1277.825 5051.054)"/><path class="a" d="M-478.6,662.577c-.145-.756-1.091-.731-1.621-.405-.339.207-.612.53-.947.747a.711.711,0,0,1-.907-.034,1.579,1.579,0,0,0,1.39,1.02,1.654,1.654,0,0,0,.77-.151c.25-.124.463-.42.763-.406,0,0-.072-.547-.525-.588a1.088,1.088,0,0,1,1.077-.184" transform="translate(1286.106 5051.049)"/><path class="a" d="M-531.326,558.838a5.39,5.39,0,0,1,3.313-.369c.635-.271,1.232-.489,1.919-.752a30.11,30.11,0,0,0,4.429-1.963,1.259,1.259,0,0,1-.495-1.115,30.587,30.587,0,0,1-4.378,1.911,21.389,21.389,0,0,0-4.789,2.287" transform="translate(1316.7 5117.71)"/><path class="a" d="M-583.371,612.287a7.7,7.7,0,0,1-3.153-.138l-.043-.01c-2.086-.4-4.413-1.977-4.588-4.492a4.128,4.128,0,0,1,2.271-4.332,3.992,3.992,0,0,1,4.544.737.925.925,0,0,1,.262-.629.8.8,0,0,1,.653-.2,5.332,5.332,0,0,0-5.978-1.044,5.383,5.383,0,0,0-3,5.555c.221,3.166,3.043,5.133,5.579,5.627a9.8,9.8,0,0,0,1.959.265,3.874,3.874,0,0,1,1.492-1.339" transform="translate(1354.649 5088.485)"/><path class="a" d="M-561.743,609.928a2.219,2.219,0,0,0-.714-1.369c-.3-.236-1.091-.522-1.451-.27a1.229,1.229,0,0,1-1.668.677l-.183-.126.1.231a2.075,2.075,0,0,0,.269.361,2.08,2.08,0,0,0,1.726.454c.539-.1,1.446-.38,1.92.041" transform="translate(1338.088 5084.446)"/><path class="a" d="M-570.889,611.881a1.9,1.9,0,0,0-.205-.4l-.167-.195.03.214a1.215,1.215,0,0,1-1.424,1.063c-.4.179-.517.97-.443,1.338a2.253,2.253,0,0,0,.922,1.249c-.161-.594.53-1.218.882-1.616a1.822,1.822,0,0,0,.406-1.654" transform="translate(1342.661 5082.522)"/><path class="a" d="M-565.928,614.2c.825.329,1.135.447,1.156.453,0-.02.043-.333.133-1.179a1.609,1.609,0,0,0-1.1-1.656,1.363,1.363,0,0,1-.759-.587,1.741,1.741,0,0,1,0,.662,1.942,1.942,0,0,1-.613-.318,1.257,1.257,0,0,1,.181.914,1.587,1.587,0,0,0,1,1.711" transform="translate(1338.93 5082.559)"/><path class="a" d="M-574.741,610.325c-.243.149-.57.011-.839.028a1.627,1.627,0,0,0-.713.237,1.42,1.42,0,0,0-.635,1.477c.057-.327.437-.464.734-.451.389.018.779.152,1.167.16.6.017,1.4-.407,1.135-1.087a1.058,1.058,0,0,1-.985.356c.353-.245.136-.721.136-.721" transform="translate(1345.04 5083.121)"/><path class="a" d="M-565.433,605.726c.5.545,1.274.085,1.549-.426.174-.326.237-.714.405-1.046a.681.681,0,0,1,.772-.4,1.593,1.593,0,0,0-1.67-.178,1.539,1.539,0,0,0-.564.479c-.143.218-.171.556-.426.685,0,0,.336.411.732.232a1,1,0,0,1-.8.651" transform="translate(1337.886 5087.35)"/><path class="a" d="M-504.966,528.148a1.456,1.456,0,0,1-1.111-.624,1.568,1.568,0,0,1-.657.936,1.939,1.939,0,0,1-.89-.667,1.454,1.454,0,0,1-.852.883,3.883,3.883,0,0,0,3.007,2.814,4.263,4.263,0,0,1,.2-1.569,2.989,2.989,0,0,0,.3-1.773" transform="translate(1302.507 5134.554)"/><path class="a" d="M-518.558,516.179c.957-.55.722-1.611.869-2.439a6.664,6.664,0,0,1,1.2-3.011,7.083,7.083,0,0,1,4.013-2.462c.172-.026.333-.043.456-.05a5.746,5.746,0,0,1,4.422,1.444,6.514,6.514,0,0,1,1.925,4.373,6.832,6.832,0,0,1-2.615,5.574,9.511,9.511,0,0,0,1.456-4.572,5.238,5.238,0,0,0-1.349-3.882,4.192,4.192,0,0,0-3.085-1.379,4.3,4.3,0,0,0-3.761,2.463,2.062,2.062,0,0,1,1.509-.11,3.024,3.024,0,0,1,2.252-1.1A2.934,2.934,0,0,1-509.1,512a3.959,3.959,0,0,1,1.019,2.941c-.2,2.739-1.4,4.805-4.246,7.047a2.564,2.564,0,0,1-.336.268,3.417,3.417,0,0,1-.167,1.169,2.46,2.46,0,0,1,1.157.074l.164-.09c3.163-1.83,6.012-4.108,6.847-7.14l.011,0c1.039-2.962.719-8.432-1.235-10.781a3.417,3.417,0,0,1-.82.977,8.816,8.816,0,0,1,1.279,3.984,6.865,6.865,0,0,0-1.325-1.71,6.943,6.943,0,0,0-5.347-1.776,6.374,6.374,0,0,0-.945.128,8.348,8.348,0,0,0-2.638.254,4.177,4.177,0,0,0-1.489.714c-.572.467-.871,1.122-.222,1.67a3.634,3.634,0,0,0-1.145.343,1.953,1.953,0,0,0-1.137,1.629,3.959,3.959,0,0,0,.823,2.186c.319.558.59,1.31-.173,1.631a.545.545,0,0,0-.142-.822.726.726,0,0,0-1.07.477c-.213.928.94,1.422,1.678,1" transform="translate(1309.827 5148.237)"/><path class="a" d="M-568.748,575.965a2.039,2.039,0,0,1,.69-1.049,4.158,4.158,0,0,1-1.109-2.814,4.061,4.061,0,0,1,4.057-4.055h0a4.041,4.041,0,0,1,4.367,3.522,10.146,10.146,0,0,1,.384-2.152c-.73-1.44-2.058-2.619-4.752-2.619a5.312,5.312,0,0,0-5.305,5.3,5.331,5.331,0,0,0,1.668,3.863" transform="translate(1340.982 5110.157)"/><path class="a" d="M-558.859,624.671a2.109,2.109,0,0,1,1.379.452,2.249,2.249,0,0,1,.244-.892,2.42,2.42,0,0,1-.2-.453A15.148,15.148,0,0,1-558,619.2a12.593,12.593,0,0,1,1.125-5.006,3.321,3.321,0,0,1,.13-1.714,3.378,3.378,0,0,1-1.086-.115,8.624,8.624,0,0,1-2.968-.423,4.929,4.929,0,0,1-3.636-5.781,3.693,3.693,0,0,1,1.656-2.315,3.692,3.692,0,0,1,2.809-.464,2.83,2.83,0,0,1,1.773,1.269,2.831,2.831,0,0,1,.357,2.153,2.157,2.157,0,0,1-2.587,1.611,1.418,1.418,0,0,1-.154-.045,1.681,1.681,0,0,0,.184-.062,1.824,1.824,0,0,0,1.025-2.367,1.823,1.823,0,0,0-2.368-1.023,1.823,1.823,0,0,0-1.145,1.556,2.852,2.852,0,0,0,2.177,3.157,3.407,3.407,0,0,0,4.085-2.544,4.068,4.068,0,0,0-.513-3.1,4.063,4.063,0,0,0-2.55-1.825,4.927,4.927,0,0,0-3.75.621,4.929,4.929,0,0,0-2.212,3.091,6.224,6.224,0,0,0,4.479,7.256,13.019,13.019,0,0,0,3.357.483l-.159.252a13.424,13.424,0,0,0-1.108,7.885c-.263-.557-.508-1.126-.755-1.705a33.538,33.538,0,0,0-1.589-3.36,9.587,9.587,0,0,0-5.632-4.806,5.968,5.968,0,0,0-4.656.575,4.652,4.652,0,0,0-2.522,4.16,4.678,4.678,0,0,0,4.673,4.673,4.347,4.347,0,0,0,1.587-.279,1.466,1.466,0,0,1-.873-1.04,2.867,2.867,0,0,1-.714.071,3.429,3.429,0,0,1-3.425-3.425,3.409,3.409,0,0,1,1.857-3.056l.032-.018a4.746,4.746,0,0,1,3.716-.455,8.482,8.482,0,0,1,4.87,4.212,32.212,32.212,0,0,1,1.527,3.238,23.761,23.761,0,0,0,1.953,3.891Z" transform="translate(1343.355 5088.271)"/><path class="a" d="M-517.5,669.026a6.912,6.912,0,0,1-8.689-.158,8.274,8.274,0,0,1-1.1-1.184,1.2,1.2,0,0,1-1.123.625,10.493,10.493,0,0,0,1.4,1.494,8.106,8.106,0,0,0,5.344,1.941,7.516,7.516,0,0,0,5-1.786,4.712,4.712,0,0,0,.747-.778,5.457,5.457,0,0,0-1.171-.549c-.093.1-.3.3-.4.394" transform="translate(1314.892 5047.492)"/><path class="a" d="M-510.3,653.617a6.508,6.508,0,0,0,.549-2.6,6.343,6.343,0,0,0-1.764-4.616,5.6,5.6,0,0,0-7.858.05,4.551,4.551,0,0,0-1.194,4.313l.1.257a2.032,2.032,0,0,1,1-1.2,3.136,3.136,0,0,1,.977-2.495,4.362,4.362,0,0,1,6.118-.019A5.141,5.141,0,0,1-511,651a5.1,5.1,0,0,1-.433,2.063,8.206,8.206,0,0,1,1.133.551" transform="translate(1310.103 5061.693)"/><path class="a" d="M-542.778,559.064a8.076,8.076,0,0,0,2.433,2.142,8.075,8.075,0,0,1-.879-10.252,5.953,5.953,0,0,1,1.918-1.764,4.053,4.053,0,0,1,1.256-.468,3.572,3.572,0,0,1,1.468-.009,3.045,3.045,0,0,1,2.244,1.507,4,4,0,0,1,.271.582,3.774,3.774,0,0,1-.264,2.762,3.107,3.107,0,0,1-4.052.971c-.11-.05-.292-.119-.449-.19a2.079,2.079,0,0,0-1.506-.25,1.117,1.117,0,0,0-.776.726.965.965,0,0,0,1.132,1.193c.833-.245.508-1.229-.176-.928.284-.507.839-.158,1.314.432a4.991,4.991,0,0,0,1.334,1.129c1.335.849,3.211.427,3.225-1.349,2.388.528,2.994-3.621.75-6.064a4.925,4.925,0,0,0-2.775-1.639,4.783,4.783,0,0,0-3,.292,6.655,6.655,0,0,0-2.959,2.385,9.112,9.112,0,0,0-.708,1.307,8.94,8.94,0,0,1,.281-.906c.834-2.226,2.412-3.238,4.24-4.41a27.3,27.3,0,0,0,2.251-1.557c2.377-1.88,2.959-4.42,1.48-6.477a3.545,3.545,0,0,0-2.859-1.472,3.514,3.514,0,0,0-3.32,2.374,1.566,1.566,0,0,0-.055.22,1.807,1.807,0,0,0-.1.6,1.824,1.824,0,0,0,1.825,1.823,1.824,1.824,0,0,0,1.823-1.823,1.823,1.823,0,0,0-1.145-1.693,2.224,2.224,0,0,1,.974-.227,2.27,2.27,0,0,1,1.829.944c1.27,1.767.192,3.6-1.238,4.735-.7.557-1.438,1.029-2.149,1.484-1.936,1.241-3.761,2.413-4.743,5.035a9.4,9.4,0,0,0,1.107,8.837" transform="translate(1324.893 5128.819)"/><path class="a" d="M-577.747,593.764a1.488,1.488,0,0,1,1.048,1.717,1.374,1.374,0,0,1-.7,1.009,4.136,4.136,0,0,1,1.333.483,2.642,2.642,0,0,0,.6-1.278,1.949,1.949,0,0,0-1.765-2.339,2.165,2.165,0,0,0-1.474.539,1.422,1.422,0,0,1,.96-.131" transform="translate(1346.131 5093.662)"/><path class="a" d="M-522.43,636.829a2.176,2.176,0,0,1,2.465,1.529,2.32,2.32,0,0,0-2.376-2.44,2.774,2.774,0,0,0-2.84,2.795,2.933,2.933,0,0,0,2.294,2.843,3.512,3.512,0,0,1,.736-.9,2.053,2.053,0,0,1-1.938-1.94,1.894,1.894,0,0,1,1.659-1.884" transform="translate(1312.883 5067.223)"/><path class="a" d="M-532.4,660.845c.118-.589-.2-1.073-.291-1.629a2.253,2.253,0,0,1,.388-1.892,4.264,4.264,0,0,0-.691.42,2.326,2.326,0,0,0-.66.862,2.227,2.227,0,0,0-.257,1.215,2.284,2.284,0,0,0-2.679-.356,1.958,1.958,0,0,1,1.231.442,2.868,2.868,0,0,1,.348.333,10.506,10.506,0,0,1,.583.894,1.451,1.451,0,0,0,.727.528,1.1,1.1,0,0,0,1.3-.817" transform="translate(1319.968 5053.927)"/><path class="a" d="M-429.44,558.469a5.383,5.383,0,0,1,3.311.369,21.37,21.37,0,0,0-4.788-2.287,30.534,30.534,0,0,1-4.377-1.911,1.26,1.26,0,0,1-.495,1.115,30.216,30.216,0,0,0,4.429,1.963c.686.262,1.285.481,1.92.752" transform="translate(1257.356 5117.71)"/><path class="a" d="M-367.045,602.179a5.332,5.332,0,0,0-5.978,1.044.8.8,0,0,1,.652.2.921.921,0,0,1,.261.629,4,4,0,0,1,4.546-.737,4.131,4.131,0,0,1,2.271,4.332c-.176,2.515-2.5,4.092-4.589,4.492l-.043.01a7.707,7.707,0,0,1-3.154.138,3.871,3.871,0,0,1,1.492,1.339,9.8,9.8,0,0,0,1.96-.265c2.536-.494,5.357-2.462,5.578-5.627a5.382,5.382,0,0,0-3-5.555" transform="translate(1218.403 5088.485)"/><path class="a" d="M-463.505,516.273c.835,3.031,3.684,5.31,6.847,7.139l.165.09a2.464,2.464,0,0,1,1.158-.074,3.394,3.394,0,0,1-.168-1.169,2.606,2.606,0,0,1-.336-.268c-2.847-2.241-4.046-4.308-4.246-7.047a3.953,3.953,0,0,1,1.019-2.94,2.926,2.926,0,0,1,2.171-.982,3.028,3.028,0,0,1,2.253,1.1,2.055,2.055,0,0,1,1.507.11,4.3,4.3,0,0,0-3.76-2.463,4.19,4.19,0,0,0-3.086,1.379,5.233,5.233,0,0,0-1.349,3.882,9.511,9.511,0,0,0,1.455,4.572,6.834,6.834,0,0,1-2.614-5.574,6.512,6.512,0,0,1,1.924-4.373,5.746,5.746,0,0,1,4.424-1.443c.123.006.284.023.456.049a7.084,7.084,0,0,1,4.012,2.463,6.648,6.648,0,0,1,1.2,3.011c.147.828-.089,1.889.869,2.439.737.424,1.89-.072,1.678-1A.726.726,0,0,0-449,514.7a.546.546,0,0,0-.142.822c-.763-.321-.492-1.074-.173-1.631a3.942,3.942,0,0,0,.822-2.186,1.946,1.946,0,0,0-1.134-1.629,3.669,3.669,0,0,0-1.146-.344c.649-.548.349-1.2-.222-1.67a4.178,4.178,0,0,0-1.489-.714,8.346,8.346,0,0,0-2.637-.254,6.366,6.366,0,0,0-.947-.127,6.94,6.94,0,0,0-5.346,1.776,6.822,6.822,0,0,0-1.326,1.711,8.808,8.808,0,0,1,1.28-3.985,3.432,3.432,0,0,1-.821-.977c-1.955,2.35-2.274,7.819-1.236,10.781Z" transform="translate(1274.94 5148.237)"/><path class="a" d="M-386.452,609.928c.473-.42,1.38-.144,1.918-.041a2.081,2.081,0,0,0,1.727-.454,2.016,2.016,0,0,0,.268-.361l.1-.231-.184.126a1.228,1.228,0,0,1-1.667-.677c-.359-.252-1.145.033-1.451.27a2.214,2.214,0,0,0-.714,1.369" transform="translate(1226.71 5084.446)"/><path class="a" d="M-374.285,611.482a1.973,1.973,0,0,0-.206.4,1.824,1.824,0,0,0,.406,1.654c.352.4,1.043,1.023.882,1.616a2.257,2.257,0,0,0,.924-1.249c.074-.368-.039-1.159-.444-1.338a1.215,1.215,0,0,1-1.425-1.063l.031-.215Z" transform="translate(1219.321 5082.523)"/><path class="a" d="M-379.185,611.892a1.752,1.752,0,0,1,0-.662,1.363,1.363,0,0,1-.76.587,1.609,1.609,0,0,0-1.1,1.656c.09.846.13,1.16.134,1.179.02-.006.33-.124,1.156-.453a1.585,1.585,0,0,0,1-1.711,1.26,1.26,0,0,1,.181-.914,1.941,1.941,0,0,1-.613.318" transform="translate(1223.358 5082.559)"/><path class="a" d="M-372.818,610.689c-.264.68.532,1.1,1.134,1.086.389-.008.779-.142,1.167-.161.3-.012.679.124.734.452a1.424,1.424,0,0,0-.634-1.477,1.644,1.644,0,0,0-.714-.237c-.268-.016-.6.122-.839-.028,0,0-.217.476.136.721a1.057,1.057,0,0,1-.985-.356" transform="translate(1218.273 5083.121)"/><path class="a" d="M-380.717,604.843c-.253-.129-.282-.467-.425-.685a1.536,1.536,0,0,0-.564-.479,1.592,1.592,0,0,0-1.669.178.679.679,0,0,1,.771.4c.169.331.231.72.407,1.046.275.511,1.046.971,1.549.426a1,1,0,0,1-.8-.651c.395.179.731-.232.731-.232" transform="translate(1224.799 5087.35)"/><path class="a" d="M-438.988,528.676a1.454,1.454,0,0,1-.853-.884,1.937,1.937,0,0,1-.89.667,1.57,1.57,0,0,1-.655-.937,1.459,1.459,0,0,1-1.112.625,2.991,2.991,0,0,0,.3,1.774,4.232,4.232,0,0,1,.2,1.568,3.883,3.883,0,0,0,3.009-2.813" transform="translate(1261.561 5134.554)"/><path class="a" d="M-393,568.047h0a4.061,4.061,0,0,1,4.057,4.055,4.155,4.155,0,0,1-1.11,2.814,2.044,2.044,0,0,1,.691,1.049,5.327,5.327,0,0,0,1.667-3.863A5.312,5.312,0,0,0-393,566.8c-2.693,0-4.023,1.179-4.753,2.618a10.23,10.23,0,0,1,.385,2.152A4.041,4.041,0,0,1-393,568.047" transform="translate(1233.727 5110.157)"/><path class="a" d="M-398.951,612.457a5.968,5.968,0,0,0-4.656-.575,9.588,9.588,0,0,0-5.632,4.806,33.18,33.18,0,0,0-1.588,3.36c-.247.58-.492,1.149-.755,1.705a13.436,13.436,0,0,0-1.11-7.885l-.158-.252a13.02,13.02,0,0,0,3.357-.483,6.224,6.224,0,0,0,4.479-7.256,4.927,4.927,0,0,0-2.212-3.091,4.927,4.927,0,0,0-3.75-.621,4.07,4.07,0,0,0-2.552,1.825,4.075,4.075,0,0,0-.512,3.1,3.407,3.407,0,0,0,4.085,2.544,2.853,2.853,0,0,0,2.177-3.158,1.824,1.824,0,0,0-1.145-1.555,1.824,1.824,0,0,0-2.368,1.023,1.824,1.824,0,0,0,1.023,2.367,1.576,1.576,0,0,0,.185.062,1.554,1.554,0,0,1-.155.044,2.157,2.157,0,0,1-2.588-1.611,2.841,2.841,0,0,1,.357-2.153,2.832,2.832,0,0,1,1.775-1.269,3.693,3.693,0,0,1,2.809.464,3.692,3.692,0,0,1,1.656,2.315,4.929,4.929,0,0,1-3.636,5.781,8.622,8.622,0,0,1-2.968.423,3.378,3.378,0,0,1-1.086.115,3.321,3.321,0,0,1,.13,1.714,12.6,12.6,0,0,1,1.125,5.006,15.2,15.2,0,0,1-.566,4.579,2.522,2.522,0,0,1-.2.453,2.254,2.254,0,0,1,.243.892,2.107,2.107,0,0,1,1.378-.452l.176-.242a23.9,23.9,0,0,0,1.953-3.891,31.585,31.585,0,0,1,1.529-3.238,8.472,8.472,0,0,1,4.868-4.212,4.747,4.747,0,0,1,3.716.455l.033.018a3.411,3.411,0,0,1,1.856,3.056,3.43,3.43,0,0,1-3.425,3.425,2.881,2.881,0,0,1-.714-.071,1.466,1.466,0,0,1-.872,1.04,4.34,4.34,0,0,0,1.586.279,4.68,4.68,0,0,0,4.674-4.673,4.654,4.654,0,0,0-2.522-4.16" transform="translate(1243.915 5088.271)"/><path class="a" d="M-434.8,667.683a8.156,8.156,0,0,1-1.1,1.184,6.913,6.913,0,0,1-8.689.158c-.1-.091-.31-.3-.4-.393a5.431,5.431,0,0,0-1.17.549,4.7,4.7,0,0,0,.746.777,7.517,7.517,0,0,0,5,1.787,8.1,8.1,0,0,0,5.343-1.941,10.421,10.421,0,0,0,1.4-1.495,1.2,1.2,0,0,1-1.124-.626" transform="translate(1263.802 5047.492)"/><path class="a" d="M-439.095,651.023l.1-.257a4.55,4.55,0,0,0-1.193-4.313,5.6,5.6,0,0,0-7.858-.05,6.348,6.348,0,0,0-1.764,4.616,6.488,6.488,0,0,0,.55,2.6,8.158,8.158,0,0,1,1.132-.55,5.163,5.163,0,0,1-.434-2.064,5.142,5.142,0,0,1,1.372-3.688,4.361,4.361,0,0,1,6.117.018,3.137,3.137,0,0,1,.977,2.5,2.028,2.028,0,0,1,1,1.2" transform="translate(1266.067 5061.693)"/><path class="a" d="M-427.188,538.229c-1.477,2.057-.895,4.6,1.48,6.477.753.6,1.515,1.083,2.252,1.556,1.827,1.172,3.405,2.184,4.239,4.41a8.946,8.946,0,0,1,.283.906,9.128,9.128,0,0,0-.708-1.307,6.666,6.666,0,0,0-2.959-2.384,4.786,4.786,0,0,0-3-.292,4.917,4.917,0,0,0-2.774,1.639c-2.243,2.443-1.639,6.592.75,6.064.015,1.775,1.89,2.2,3.225,1.349a4.988,4.988,0,0,0,1.334-1.129c.475-.59,1.029-.938,1.314-.432-.685-.3-1.009.682-.175.928a.966.966,0,0,0,1.133-1.194,1.118,1.118,0,0,0-.777-.726,2.076,2.076,0,0,0-1.5.25c-.158.072-.339.14-.45.19a3.105,3.105,0,0,1-4.052-.971,3.768,3.768,0,0,1-.263-2.761,4.049,4.049,0,0,1,.271-.582,3.045,3.045,0,0,1,2.244-1.507,3.569,3.569,0,0,1,1.468.01,4.044,4.044,0,0,1,1.255.468,5.94,5.94,0,0,1,1.917,1.764,8.076,8.076,0,0,1-.879,10.253,8.089,8.089,0,0,0,2.433-2.142,9.4,9.4,0,0,0,1.107-8.837c-.982-2.622-2.808-3.793-4.742-5.034a25.968,25.968,0,0,1-2.15-1.485c-1.431-1.131-2.507-2.969-1.238-4.735a2.275,2.275,0,0,1,1.83-.944,2.213,2.213,0,0,1,.973.227,1.823,1.823,0,0,0-1.145,1.693,1.824,1.824,0,0,0,1.824,1.824,1.824,1.824,0,0,0,1.824-1.824,1.842,1.842,0,0,0-.1-.593,1.5,1.5,0,0,0-.058-.224,3.512,3.512,0,0,0-3.319-2.374,3.55,3.55,0,0,0-2.861,1.472" transform="translate(1253.621 5128.819)"/><path class="a" d="M-371.512,595.695a2.628,2.628,0,0,0,.6,1.278,4.125,4.125,0,0,1,1.332-.483,1.372,1.372,0,0,1-.7-1.009,1.486,1.486,0,0,1,1.047-1.717,1.423,1.423,0,0,1,.96.131,2.162,2.162,0,0,0-1.473-.539,1.949,1.949,0,0,0-1.765,2.339" transform="translate(1217.451 5093.662)"/><path class="a" d="M-424.983,638.713a2.776,2.776,0,0,0-2.842-2.795,2.319,2.319,0,0,0-2.374,2.441,2.175,2.175,0,0,1,2.464-1.53,1.894,1.894,0,0,1,1.659,1.884,2.054,2.054,0,0,1-1.939,1.94,3.536,3.536,0,0,1,.736.9,2.933,2.933,0,0,0,2.3-2.843" transform="translate(1253.884 5067.223)"/><path class="a" d="M-483.437,667.684a2.351,2.351,0,0,1,1.453,1.543,5.754,5.754,0,0,0,1.289.057,3.685,3.685,0,0,0-2.263-2.751,4.62,4.62,0,0,0-4.488.408c-.5.275-.985.581-1.453.876a13.211,13.211,0,0,1-2.825,1.485,3,3,0,0,1-3.258-.679,2.729,2.729,0,0,1-.555-1.383c0-.011,0-.023,0-.035l-.006-.141v-.011h0a1.116,1.116,0,0,1-.567.2h-.086a1.109,1.109,0,0,1-.566-.2h0v.022l0,.13c0,.011,0,.021,0,.032a2.728,2.728,0,0,1-.555,1.387,3,3,0,0,1-3.257.679,13.173,13.173,0,0,1-2.825-1.485c-.469-.3-.953-.6-1.454-.876a4.62,4.62,0,0,0-4.488-.408,3.687,3.687,0,0,0-2.264,2.751,5.753,5.753,0,0,0,1.289-.057,2.351,2.351,0,0,1,1.454-1.543,3.392,3.392,0,0,1,3.407.349c.468.257.936.553,1.39.839a14.245,14.245,0,0,0,3.1,1.612,4.8,4.8,0,0,0,2.645.14,3.664,3.664,0,0,0,1.97-1.208c.071-.087.14-.183.207-.283.067.1.136.2.208.283a3.658,3.658,0,0,0,1.968,1.208,4.8,4.8,0,0,0,2.645-.14,14.267,14.267,0,0,0,3.1-1.612c.453-.286.922-.582,1.39-.839a3.393,3.393,0,0,1,3.408-.349" transform="translate(1304.453 5048.46)"/><path class="a" d="M-414.734,659.821a2.233,2.233,0,0,0-.257-1.215,2.338,2.338,0,0,0-.66-.862,4.247,4.247,0,0,0-.691-.42,2.253,2.253,0,0,1,.388,1.892c-.087.556-.409,1.041-.291,1.629a1.1,1.1,0,0,0,1.3.817,1.456,1.456,0,0,0,.727-.528,10.421,10.421,0,0,1,.583-.9,2.934,2.934,0,0,1,.347-.333,1.956,1.956,0,0,1,1.231-.442,2.282,2.282,0,0,0-2.678.356" transform="translate(1245.277 5053.927)"/></g></svg>