<svg xmlns="http://www.w3.org/2000/svg" width="27.529" height="22.425" viewBox="0 0 27.529 22.425"><defs><style>.a{fill:#303030;}</style></defs><path class="a" d="M52.843,273.139a11.335,11.335,0,0,0,8.3-2.331c-.19-.025-.376-.042-.562-.063a5.22,5.22,0,0,1-1.469-.392,5.633,5.633,0,0,1-2.971-2.887,5.032,5.032,0,0,1-.2-.506c-.03-.088,0-.1.078-.088a5.226,5.226,0,0,0,1.19.08,4.593,4.593,0,0,0,1.191-.2c-.116-.031-.232-.062-.347-.094a5.647,5.647,0,0,1-4.077-4.688c-.033-.244-.033-.489-.053-.734-.006-.076,0-.107.09-.06a5.615,5.615,0,0,0,1.719.591,3.024,3.024,0,0,0,.7.049c-.106-.08-.213-.158-.316-.241a5.622,5.622,0,0,1-2.044-3.347,5.234,5.234,0,0,1-.108-1.145,5.654,5.654,0,0,1,.72-2.715c.038-.068.059-.085.115-.016a15.156,15.156,0,0,0,1.6,1.687,16.151,16.151,0,0,0,2.468,1.845,15.977,15.977,0,0,0,5.479,2.078,18.675,18.675,0,0,0,1.873.228c.025,0,.05,0,.075,0,.073.009.09-.013.074-.09a5.744,5.744,0,0,1-.116-1.464,5.636,5.636,0,0,1,1.684-3.77,5.72,5.72,0,0,1,2.186-1.336,5.619,5.619,0,0,1,2.3-.261,5.5,5.5,0,0,1,3.051,1.237,4.679,4.679,0,0,1,.487.448.173.173,0,0,0,.186.058,12.093,12.093,0,0,0,1.9-.575,11.94,11.94,0,0,0,1.587-.781,5.563,5.563,0,0,1-.942,1.778,6,6,0,0,1-1.476,1.333,9.7,9.7,0,0,0,1.6-.305,11.621,11.621,0,0,0,1.544-.55l.019.021c-.106.148-.212.3-.319.443a10.894,10.894,0,0,1-1.214,1.389,10.177,10.177,0,0,1-1.2,1.011.155.155,0,0,0-.073.151c.009.221.017.441.015.662a16.05,16.05,0,0,1-.432,3.6,16.96,16.96,0,0,1-1.5,4.02,16.5,16.5,0,0,1-1.878,2.822,15.7,15.7,0,0,1-1.784,1.837,15.139,15.139,0,0,1-5.134,2.948,15.537,15.537,0,0,1-2.651.642c-.524.079-1.05.139-1.579.171-.5.03-1,.046-1.495.033a16.6,16.6,0,0,1-2.06-.181,15.95,15.95,0,0,1-2.935-.734,15.766,15.766,0,0,1-2.821-1.321c-.147-.087-.292-.178-.437-.268A.229.229,0,0,1,52.843,273.139Z" transform="translate(-52.843 -253.255)"/></svg>