<svg xmlns="http://www.w3.org/2000/svg" width="22.422" height="22.425" viewBox="0 0 22.422 22.425"><defs><style>.a{fill:#303030;}</style></defs><path class="a" d="M1925.6,986.822a11.213,11.213,0,1,1,11.2-11.238A11.165,11.165,0,0,1,1925.6,986.822Zm-.683-8.147a3.2,3.2,0,0,0,2.838,1.07,4.5,4.5,0,0,0,3.522-2.311c1.7-2.935,1.627-6.609-1.4-8.58a7.108,7.108,0,0,0-8.587.979,5.449,5.449,0,0,0-1.439,5.566,2.856,2.856,0,0,0,1.571,1.93c.208.093.448.2.538-.042.182-.5.524-1,.065-1.55a2.4,2.4,0,0,1-.53-1.542,4.441,4.441,0,0,1,4.02-4.677c2.254-.3,4.133.859,4.446,2.891a6.37,6.37,0,0,1-1.028,4.639,2.377,2.377,0,0,1-.867.791,1.737,1.737,0,0,1-1.964-.036,1.526,1.526,0,0,1-.443-1.814,13.558,13.558,0,0,0,.734-2.95,1.3,1.3,0,0,0-.772-1.419,1.512,1.512,0,0,0-1.738.533,3.075,3.075,0,0,0-.466,2.773,2.586,2.586,0,0,1,.014,1.272c-.354,1.435-.721,2.868-1.038,4.311a8.4,8.4,0,0,0,.032,3.892C1923.986,982.769,1924.476,980.8,1924.918,978.675Z" transform="translate(-1914.381 -964.397)"/></svg>