<svg xmlns="http://www.w3.org/2000/svg" width="29.056" height="20.371" viewBox="0 0 29.056 20.371"><defs><style>.a{fill:#303030;}</style></defs><path class="a" d="M1947.068,973.025c-3.25-.164-6.506-.081-9.753-.4-2.747-.268-3.964-1.177-4.342-3.849a39.738,39.738,0,0,1,.068-12.206c.386-2.3,1.557-3.316,3.916-3.519a130.009,130.009,0,0,1,17.675-.191,25.657,25.657,0,0,1,3.427.332,3.456,3.456,0,0,1,2.94,2.7,27.415,27.415,0,0,1,.589,6.559,33.606,33.606,0,0,1-.431,6.579c-.449,2.344-1.635,3.332-4.043,3.574C1953.772,972.944,1950.417,972.87,1947.068,973.025Zm-2.846-14.54v8.671l7.515-4.336Z" transform="translate(-1932.535 -952.654)"/></svg>